<?xml version="1.0" standalone="no"?>
<!DOCTYPE svg PUBLIC "-//W3C//DTD SVG 20010904//EN"
 "http://www.w3.org/TR/2001/REC-SVG-20010904/DTD/svg10.dtd">
<svg version="1.0" xmlns="http://www.w3.org/2000/svg"
 width="1600.000000pt" height="400.000000pt" viewBox="0 0 1600.000000 400.000000"
 preserveAspectRatio="xMidYMid meet">

<g transform="translate(0.000000,400.000000) scale(0.100000,-0.100000)"
fill="#000000" stroke="none">
<path d="M9880 3895 c0 -35 29 -30 43 8 5 13 1 17 -18 17 -20 0 -25 -5 -25
-25z"/>
<path d="M9941 3804 c0 -11 3 -14 6 -6 3 7 2 16 -1 19 -3 4 -6 -2 -5 -13z"/>
<path d="M12586 3805 c-8 -22 -8 -2713 0 -2754 l7 -31 72 0 c39 0 113 3 163 6
l92 7 0 1387 0 1388 -37 4 c-21 3 -95 6 -164 7 -110 2 -127 0 -133 -14z"/>
<path d="M9946 3723 c-6 -14 -5 -15 5 -6 7 7 10 15 7 18 -3 3 -9 -2 -12 -12z"/>
<path d="M9966 3460 c8 -83 24 -102 24 -29 -1 33 -7 62 -16 74 -14 18 -15 15
-8 -45z"/>
<path d="M10670 3270 c-69 -4 -170 -15 -225 -25 -335 -56 -487 -131 -553 -273
-26 -55 -27 -63 -26 -222 1 -210 17 -293 73 -377 43 -66 79 -99 147 -139 115
-68 366 -94 724 -76 239 12 349 27 483 68 45 14 98 29 117 34 22 5 50 26 73
52 21 24 56 63 78 86 22 24 54 68 71 98 27 48 30 64 30 127 -1 84 -18 137 -72
227 -21 36 -53 100 -70 142 -54 131 -141 210 -265 242 -128 32 -381 48 -585
36z m751 -211 c16 -17 36 -54 44 -83 25 -88 45 -264 45 -402 0 -115 -2 -135
-19 -155 -11 -13 -22 -21 -26 -17 -4 4 -8 76 -10 160 -4 256 -28 421 -71 483
-35 49 -6 60 37 14z m-184 -80 c93 -35 153 -158 154 -314 1 -100 -10 -139 -56
-193 -37 -44 -77 -63 -135 -64 -75 -2 -120 33 -166 129 -34 70 -38 87 -42 179
-6 140 19 211 92 255 35 21 108 25 153 8z m-801 -10 c61 -16 117 -80 144 -167
24 -76 26 -216 6 -275 -34 -94 -108 -147 -206 -146 -73 1 -112 16 -160 63 -52
50 -81 128 -87 236 -6 100 5 151 48 209 54 76 151 106 255 80z m1141 -161 c-3
-8 -6 -5 -6 6 -1 11 2 17 5 13 3 -3 4 -12 1 -19z m3 -58 c0 -16 -4 -30 -10
-30 -11 0 -14 43 -3 53 11 12 13 8 13 -23z"/>
<path d="M11128 2855 c-74 -50 -87 -218 -22 -294 48 -57 125 -65 181 -17 24
21 28 32 31 96 6 105 -11 172 -54 209 -43 38 -86 40 -136 6z m38 -90 c9 -36
-2 -55 -31 -55 -20 0 -25 5 -25 24 0 37 10 56 31 56 12 0 21 -9 25 -25z"/>
<path d="M10313 2855 c-17 -7 -44 -33 -60 -56 -24 -37 -28 -52 -28 -118 0 -95
22 -144 76 -171 60 -31 108 -26 157 16 50 43 66 92 59 183 -5 70 -23 102 -77
139 -37 25 -80 28 -127 7z m5 -138 c3 -37 2 -38 -25 -35 -32 3 -44 38 -22 64
21 26 44 12 47 -29z"/>
<path d="M8477 2103 c-3 -850 -3 -845 -50 -914 -41 -60 -78 -74 -202 -74 -130
0 -165 15 -204 85 -23 42 -25 58 -32 245 -5 157 -11 213 -27 262 -68 213 -257
392 -472 448 -99 26 -271 17 -370 -18 -135 -48 -272 -162 -347 -288 -81 -136
-114 -322 -78 -444 25 -89 71 -172 126 -230 27 -29 49 -55 49 -58 0 -4 -214
-7 -475 -7 -261 0 -475 2 -475 5 0 3 52 63 116 133 126 140 232 288 273 385
23 54 26 76 26 172 0 100 -3 115 -27 161 -33 63 -94 119 -165 151 -105 48
-165 52 -754 53 l-546 0 -6 -197 c-4 -109 -4 -209 0 -223 3 -14 95 -158 203
-320 108 -162 200 -301 204 -307 6 -10 -81 -13 -418 -13 l-426 0 0 530 0 530
-125 0 -124 0 -3 -727 c-3 -668 -5 -732 -21 -772 -27 -70 -65 -111 -124 -138
-48 -22 -65 -25 -145 -22 l-91 4 -31 -108 c-25 -91 -28 -110 -16 -117 23 -15
138 -23 224 -17 282 20 430 181 453 492 l8 100 1500 2 c1664 3 1575 -1 1714
69 42 21 100 63 145 105 l76 71 27 -58 c35 -77 95 -136 169 -164 48 -19 79
-23 169 -24 186 0 288 34 380 128 27 29 63 78 78 110 56 114 56 120 57 996 l1
805 -120 3 -120 3 -4 -808z m-2639 -183 c122 -11 177 -38 210 -100 47 -89 10
-216 -105 -360 -100 -125 -303 -341 -331 -351 -17 -7 -34 -7 -48 0 -20 9 -370
525 -421 620 -18 34 -23 60 -23 116 0 39 3 75 7 78 10 10 603 8 711 -3z m1581
-5 c130 -31 226 -109 284 -233 29 -62 32 -75 32 -167 0 -94 -2 -105 -34 -170
-62 -125 -169 -204 -307 -228 -168 -29 -351 69 -427 230 -30 63 -32 76 -32
173 0 96 3 110 29 165 69 141 215 239 361 244 17 0 59 -6 94 -14z"/>
<path d="M9180 2890 c-8 -14 -12 -135 -13 -368 l-2 -347 -37 -3 c-25 -2 -38
-8 -38 -17 0 -14 4 -18 47 -53 15 -11 23 -30 25 -57 l3 -40 -58 -3 c-48 -3
-58 -6 -55 -20 2 -10 24 -24 56 -36 50 -18 52 -20 52 -55 0 -30 -5 -39 -30
-53 -35 -20 -42 -58 -11 -58 54 0 51 22 51 -444 0 -237 3 -441 6 -453 6 -22
11 -23 108 -23 55 0 107 4 114 8 14 10 20 155 21 596 l1 289 26 -26 c14 -14
23 -31 20 -36 -8 -12 26 -82 48 -100 14 -12 16 -10 16 13 0 39 -24 91 -51 109
-12 9 -20 20 -16 23 9 10 55 -34 73 -68 l14 -28 50 52 c28 29 50 59 50 66 0 9
7 13 18 10 10 -3 23 1 30 9 7 7 23 13 35 13 19 1 17 6 -21 40 -24 21 -57 42
-73 45 -40 9 -44 25 -24 79 13 34 16 59 10 103 -23 198 -92 249 -78 59 6 -83
5 -86 -14 -79 -11 5 -42 27 -68 50 l-49 42 -1 388 0 388 -112 3 c-105 2 -113
1 -123 -18z"/>
<path d="M9716 2894 c-5 -14 -4 -15 9 -4 17 14 19 20 6 20 -5 0 -12 -7 -15
-16z"/>
<path d="M9584 2757 c-54 -88 -55 -262 -4 -337 10 -14 24 -41 32 -60 8 -19 22
-41 30 -48 13 -10 17 -8 28 18 7 16 13 46 14 67 0 21 4 43 8 49 9 14 -16 183
-31 212 -6 12 -8 22 -4 22 4 0 2 4 -5 9 -7 4 -15 28 -17 52 -2 24 -5 46 -6 49
-1 3 -1 8 0 13 3 21 -18 0 -45 -46z"/>
<path d="M11720 2451 c0 -198 -4 -362 -9 -365 -4 -3 -23 6 -41 19 -61 45 -69
32 -45 -67 6 -24 3 -29 -34 -47 -30 -16 -39 -25 -34 -39 9 -25 52 -71 123
-131 l35 -29 0 -449 c0 -402 -2 -456 -19 -528 -23 -100 -44 -142 -94 -187 -39
-35 -41 -36 -130 -36 -74 0 -90 2 -85 14 3 9 -1 14 -12 14 -9 0 -13 -4 -10
-10 3 -5 -1 -10 -9 -10 -9 0 -16 5 -16 10 0 6 -7 10 -15 10 -8 0 -15 -6 -15
-14 0 -10 -18 -14 -68 -15 l-68 -1 1 62 c2 105 -39 137 -111 88 -32 -21 -40
-33 -42 -63 -4 -45 -30 -50 -68 -12 -31 31 -34 31 -34 1 0 -15 17 -39 48 -68
48 -45 74 -55 185 -73 40 -6 42 -11 27 -47 -27 -67 -69 -223 -62 -230 21 -21
187 -40 292 -35 190 11 329 66 435 173 73 74 118 148 156 256 48 142 50 170
56 771 l5 567 33 0 c20 0 35 6 39 15 7 20 -20 45 -50 45 -22 0 -24 3 -24 55 0
48 3 56 26 68 l26 14 -26 16 -26 17 -2 298 -3 297 -167 3 -168 2 0 -359z
m-560 -1776 c13 -16 11 -18 -42 -29 -37 -8 -44 10 -11 28 35 19 38 19 53 1z"/>
<path d="M13825 2794 c-77 -15 -178 -53 -243 -91 -39 -22 -43 -28 -37 -51 12
-52 118 -262 132 -262 7 0 35 11 62 24 77 39 166 58 271 58 262 -2 456 -155
526 -417 17 -61 19 -108 19 -380 l0 -310 -595 -5 -595 -5 -3 -161 c-2 -124 0
-163 10 -166 7 -2 351 -1 763 2 l750 5 6 80 c3 44 5 267 4 495 -1 455 -3 478
-65 638 -107 277 -351 488 -632 546 -94 19 -276 20 -373 0z"/>
<path d="M3009 2607 c-73 -48 -95 -156 -46 -220 37 -49 62 -61 125 -60 61 2
111 32 138 85 21 41 14 116 -14 155 -45 63 -141 82 -203 40z"/>
<path d="M1134 2601 c-69 -42 -99 -122 -69 -182 39 -78 100 -109 173 -90 44
12 100 66 111 107 32 120 -110 229 -215 165z"/>
<path d="M1585 2607 c-61 -28 -99 -100 -86 -159 28 -123 164 -165 252 -77 92
92 40 236 -90 246 -26 2 -59 -3 -76 -10z"/>
<path d="M11440 2210 c-6 -11 -9 -20 -8 -20 2 0 11 9 21 20 9 11 13 20 7 20
-5 0 -14 -9 -20 -20z"/>
<path d="M1227 2154 c-153 -37 -323 -167 -400 -306 -69 -122 -89 -198 -90
-328 0 -97 4 -128 26 -195 33 -101 86 -189 157 -261 133 -135 271 -194 455
-194 178 0 304 49 418 162 l67 67 41 -64 c23 -37 61 -79 87 -99 95 -69 58 -66
938 -70 436 -1 798 0 805 4 8 5 9 20 5 44 -5 25 -3 36 5 36 9 0 10 84 6 338
-5 357 -10 393 -63 508 -79 172 -245 310 -431 358 -80 21 -237 21 -322 0 -216
-53 -399 -236 -456 -454 -23 -88 -16 -242 14 -321 28 -73 89 -167 140 -217 23
-22 41 -42 41 -46 0 -10 -483 -7 -522 4 -21 6 -51 27 -71 50 -65 71 -67 92
-67 572 l0 428 -362 -1 c-276 0 -377 -4 -421 -15z m531 -454 c2 -140 -1 -248
-8 -285 -33 -173 -154 -283 -329 -301 -259 -28 -490 235 -431 487 28 120 107
223 212 279 76 41 133 48 383 46 l170 -1 3 -225z m1395 220 c168 -27 302 -155
337 -320 7 -35 10 -133 8 -270 l-3 -215 -250 0 -250 0 -67 32 c-155 73 -238
202 -239 370 -1 86 20 158 68 231 69 104 187 171 323 181 8 0 41 -3 73 -9z"/>
<path d="M11090 2030 c-25 -5 -144 -8 -265 -9 -121 0 -231 -3 -245 -6 -14 -4
-43 -9 -65 -11 -96 -9 -113 -11 -123 -18 -6 -3 -13 -2 -17 4 -7 11 -160 4
-226 -10 -19 -4 -51 -5 -70 -3 -31 3 -30 2 11 -12 25 -8 53 -15 62 -15 27 0
68 -22 68 -36 0 -6 -11 -15 -24 -18 -31 -8 -146 -105 -146 -123 0 -8 5 -11 10
-8 6 3 10 1 10 -4 0 -6 -3 -11 -7 -12 -34 -3 -50 -12 -70 -38 -14 -17 -30 -31
-36 -31 -20 0 -76 -93 -83 -137 -4 -27 0 -67 11 -112 l17 -70 31 6 c83 16 117
53 117 129 l0 52 45 17 c37 14 48 15 60 5 9 -7 13 -21 10 -31 -8 -24 9 -32 55
-24 28 5 38 11 37 24 -1 24 62 131 78 131 7 0 16 -7 19 -16 4 -9 9 -14 13 -10
3 3 -2 16 -13 28 -19 21 -19 21 6 15 14 -4 28 -7 33 -7 4 0 7 -6 7 -14 0 -20
42 -28 106 -20 57 6 127 -11 194 -49 40 -23 142 -32 174 -15 26 13 88 79 81
86 -3 3 -23 0 -45 -7 -62 -18 -210 -27 -210 -12 0 7 -5 9 -11 5 -6 -3 -15 -1
-19 5 -4 7 -42 14 -91 17 -185 12 -190 13 -225 39 -36 28 -39 32 -25 54 8 12
12 12 26 -2 21 -22 43 -22 47 0 3 15 4 15 21 -1 10 -10 21 -16 24 -13 3 3 12
0 20 -8 8 -8 26 -18 41 -21 15 -4 32 -12 37 -18 6 -6 21 -12 35 -13 14 0 63
-3 110 -6 85 -6 117 -2 219 27 66 19 92 42 109 96 15 49 5 73 -38 95 -47 25
-39 49 26 74 31 11 63 21 72 21 33 0 92 21 87 31 -7 10 -10 10 -75 -1z m-780
-141 c0 -6 -4 -7 -10 -4 -5 3 -10 11 -10 16 0 6 5 7 10 4 6 -3 10 -11 10 -16z"/>
<path d="M11067 1913 c-14 -13 -6 -43 17 -65 29 -28 50 -90 43 -127 -4 -20 -1
-30 14 -39 10 -7 19 -18 19 -25 0 -27 26 -67 43 -67 11 0 32 9 48 20 34 25 48
19 102 -51 46 -60 72 -67 140 -42 58 22 71 46 38 69 -12 9 -21 20 -21 26 0 7
-17 28 -37 48 -53 51 -89 96 -86 106 4 13 -64 44 -97 44 -16 0 -31 4 -35 10
-6 10 -163 100 -174 100 -4 0 -11 -3 -14 -7z"/>
<path d="M11566 1831 c-3 -5 4 -11 16 -14 25 -7 33 -3 23 12 -8 13 -32 14 -39
2z"/>
<path d="M11410 1801 c13 -11 29 -17 34 -14 11 8 -22 33 -43 33 -11 0 -9 -6 9
-19z"/>
<path d="M10447 1585 c-8 -58 18 -75 47 -30 26 39 21 62 -13 61 -25 -1 -30 -6
-34 -31z"/>
<path d="M10738 1509 c-26 -15 -23 -64 4 -83 13 -10 43 -16 73 -16 59 0 95 21
95 55 0 36 -36 55 -100 55 -30 0 -63 -5 -72 -11z m100 -35 c33 -9 9 -34 -34
-34 -27 0 -34 4 -34 20 0 21 23 26 68 14z"/>
<path d="M10244 1453 c-6 -10 -8 -27 -3 -38 4 -11 8 -15 9 -10 1 6 4 22 6 38
5 32 3 34 -12 10z"/>
<path d="M10136 1338 c-10 -40 -7 -68 14 -108 21 -41 46 -60 79 -60 32 0 38
-40 10 -62 -45 -35 -81 -73 -96 -103 -19 -37 -30 -45 -66 -45 -22 0 -31 -7
-43 -35 -7 -19 -14 -55 -14 -80 0 -45 0 -45 23 -31 25 17 63 12 71 -10 3 -8 0
-14 -6 -14 -6 0 -8 -3 -4 -7 3 -4 67 -6 140 -4 93 1 136 -2 141 -10 6 -8 10
-7 16 2 8 12 11 11 20 -1 8 -11 9 1 4 46 -5 50 -2 65 12 83 17 20 22 21 70 11
75 -16 98 -3 89 53 -4 23 -23 70 -42 105 -85 156 -174 237 -272 249 -28 3 -49
10 -46 14 6 10 -5 15 -57 23 -32 6 -37 4 -43 -16z m109 -68 c3 -5 -1 -10 -10
-10 -9 0 -13 5 -10 10 3 6 8 10 10 10 2 0 7 -4 10 -10z"/>
<path d="M11203 1288 c-20 -21 -127 -190 -165 -260 -24 -43 -65 -85 -115 -114
-32 -18 -43 -31 -43 -49 0 -29 7 -34 51 -36 19 -1 49 -11 66 -21 18 -11 37
-17 42 -13 6 3 38 7 73 9 35 3 77 11 93 19 17 8 70 18 118 22 l89 7 -19 21
c-11 12 -30 44 -44 71 -22 45 -70 100 -144 163 l-25 23 30 41 c30 42 37 83 21
122 -6 17 -8 16 -28 -5z"/>
<path d="M10938 785 c-8 -19 -8 -28 2 -40 17 -21 27 -19 46 10 13 20 14 28 4
40 -18 22 -39 18 -52 -10z"/>
<path d="M10436 735 c-3 -9 2 -33 12 -53 11 -20 20 -60 21 -89 3 -58 0 -60
-79 -62 -25 -1 -79 -6 -120 -11 -76 -9 -132 -13 -182 -11 l-28 1 2 78 c3 94
-4 110 -39 86 -19 -12 -27 -13 -33 -4 -4 7 -5 -30 -3 -81 4 -63 10 -100 20
-111 25 -29 117 -41 264 -36 210 8 242 31 237 170 -2 59 -8 83 -24 104 -25 34
-40 40 -48 19z m-396 -85 c0 -5 -2 -10 -4 -10 -3 0 -8 5 -11 10 -3 6 -1 10 4
10 6 0 11 -4 11 -10z"/>
<path d="M11377 723 c-19 -18 -6 -34 25 -31 44 4 53 38 10 38 -16 0 -32 -3
-35 -7z"/>
<path d="M10308 663 c-24 -6 -30 -31 -10 -42 22 -12 39 -3 44 23 3 20 -7 26
-34 19z"/>
</g>
</svg>
